<?xml version="1.0" encoding="UTF-8"?>
<!-- Generator: visioncortex VTracer 0.6.12 -->
<svg version="1.1" xmlns="http://www.w3.org/2000/svg" viewBox="0 0 1414 610" preserveAspectRatio="none" width="1414" height="610">
<path d="M0 0 C466.62 0 933.24 0 1414 0 C1414 201.3 1414 402.6 1414 610 C947.38 610 480.76 610 0 610 C0 408.7 0 207.4 0 0 Z " fill="#FABF4D" transform="translate(0,0)"/>
<path d="M0 0 C128.37 0 256.74 0 389 0 C395.948 27.79 395.948 27.79 397.75 39.688 C397.847 40.285 397.847 40.285 398.34 43.307 C401.278 62.012 402.38 80.577 402.312 99.5 C402.311 100.546 402.31 101.591 402.308 102.668 C402.265 119.645 401.432 136.182 399 153 C398.861 154.044 398.722 155.089 398.578 156.165 C390.314 217.973 363.986 278.41 325 327 C324.573 327.537 324.147 328.074 323.708 328.627 C319.113 334.405 314.317 339.97 309.336 345.418 C307.443 347.51 305.596 349.629 303.754 351.766 C299.869 356.215 295.749 360.398 291.562 364.562 C290.85 365.279 290.138 365.995 289.404 366.732 C259.271 396.811 221.806 420.854 183 438 C182.046 438.422 181.093 438.845 180.11 439.28 C167.183 444.916 154.015 449.407 140.5 453.375 C139.802 453.58 139.103 453.786 138.384 453.997 C122.819 458.542 107.21 462.182 91.188 464.688 C89.886 464.9 88.585 465.112 87.244 465.33 C77.325 466.909 67.542 467.953 57.5 468.176 C56.429 468.2 55.358 468.223 54.254 468.248 C52.054 468.292 49.853 468.323 47.652 468.342 C46.591 468.37 45.531 468.397 44.438 468.426 C43.962 468.433 43.962 468.433 41.559 468.47 C38.223 469.161 37.126 470.376 35 473 C33.516 475.359 33.516 475.359 32.25 477.75 C31.822 478.549 31.394 479.348 30.953 480.172 C30.796 480.474 30.796 480.474 30 482 C30.678 482.181 31.355 482.361 32.053 482.547 C43.521 485.608 54.98 488.677 66.375 492 C89.66 498.728 113.304 503.963 137 509 C138.099 509.235 139.197 509.469 140.329 509.711 C146.256 510.974 152.188 512.21 158.126 513.416 C160.026 513.802 161.925 514.191 163.823 514.584 C210.95 524.295 259.036 530.492 306.938 534.75 C308.057 534.851 309.176 534.952 310.329 535.056 C348.283 538.444 386.107 539.375 424.198 539.317 C427.858 539.312 431.518 539.311 435.178 539.31 C464.724 539.294 494.236 539.063 523.75 537.625 C525.054 537.562 526.359 537.499 527.702 537.434 C540.445 536.794 553.119 535.896 565.796 534.46 C570.943 533.881 576.101 533.5 581.266 533.114 C622.663 529.981 664.009 525.005 705.081 518.998 C710.35 518.23 715.623 517.503 720.902 516.809 C721.601 516.717 722.299 516.625 723.018 516.53 C726.199 516.114 729.38 515.701 732.561 515.292 C738.631 514.499 744.646 513.568 750.663 512.438 C753.31 511.942 755.962 511.519 758.625 511.125 C779.544 507.966 800.411 504.465 821.279 500.985 C823.474 500.619 825.669 500.253 827.865 499.887 C844.917 497.045 861.964 494.182 878.981 491.133 C889.588 489.235 900.21 487.432 910.835 485.638 C926.995 482.909 943.133 480.093 959.25 477.125 C1054.737 459.569 1054.737 459.569 1099.96 454.052 C1105.925 453.313 1111.838 452.377 1117.764 451.371 C1140.125 447.589 1162.632 444.95 1185.14 442.208 C1191.734 441.404 1198.326 440.584 1204.914 439.734 C1219.075 437.911 1233.211 436.342 1247.444 435.209 C1251.424 434.884 1255.4 434.507 1259.375 434.125 C1260.205 434.047 1261.036 433.969 1261.891 433.888 C1267.029 433.399 1272.163 432.88 1277.295 432.335 C1297.317 430.214 1317.339 428.517 1337.438 427.312 C1338.397 427.252 1339.356 427.191 1340.345 427.129 C1364.88 425.601 1389.409 425.492 1414 425 C1414 486.05 1414 547.1 1414 610 C947.38 610 480.76 610 0 610 C0 408.7 0 207.4 0 0 Z " fill="#FABF4D" transform="translate(0,0)"/>
<path d="M0 0 C66.66 0 133.32 0 202 0 C203.745 6.4 205.342 12.435 206.625 18.875 C213.39 50.539 225.426 81.698 239 111 C239.472 112.027 239.943 113.054 240.429 114.112 C259.398 155.243 283.859 193.339 313 228 C313.218 228.26 313.218 228.26 314.321 229.579 C325.106 242.435 336.537 254.61 348.375 266.5 C349.112 267.242 349.849 267.983 350.608 268.747 C355.243 273.369 360.025 277.748 365 282 C366.152 282.997 367.305 283.995 368.457 284.992 C371.961 288.007 375.477 291.008 379 294 C379.873 294.741 380.745 295.482 381.645 296.246 C411.159 320.834 444.085 342.46 478.82 358.953 C481.405 360.194 483.969 361.474 486.535 362.754 C512.815 375.757 540.032 385.402 568 394 C568.93 394.286 569.86 394.572 570.819 394.867 C591.899 401.25 613.622 405.414 635.389 408.614 C637.632 408.946 639.871 409.293 642.109 409.652 C649.54 410.804 656.903 411.386 664.406 411.754 C668 412 668 412 670.836 412.507 C674.022 413.003 677.001 413.127 680.223 413.129 C681.436 413.133 682.649 413.136 683.899 413.139 C685.202 413.137 686.505 413.135 687.848 413.133 C689.224 413.133 690.6 413.134 691.976 413.136 C694.865 413.137 697.754 413.135 700.643 413.13 C704.28 413.125 707.917 413.128 711.555 413.134 C785.322 413.234 858.856 399.472 926 368 C927.167 367.456 928.334 366.912 929.536 366.352 C952.985 355.387 975.265 343.087 997 329 C998.097 328.292 999.194 327.585 1000.324 326.855 C1006.779 322.624 1013.009 318.121 1019.19 313.504 C1023.898 310 1023.898 310 1025 310 C1025 347.95 1025 385.9 1025 425 C1011.563 426.12 1011.563 426.12 1005.344 426.211 C1003.922 426.237 1002.5 426.263 1001.079 426.29 C1000.337 426.304 999.595 426.317 998.831 426.33 C961.118 427.051 923.503 429.595 886 433.579 C881.17 434.091 876.336 434.551 871.5 435 C869.914 435.152 868.328 435.304 866.742 435.457 C862.784 435.835 858.824 436.197 854.864 436.554 C825.773 439.191 796.83 442.792 767.874 446.62 C765.32 446.958 762.767 447.293 760.212 447.626 C745.824 449.508 731.501 451.653 717.207 454.163 C710.073 455.397 702.944 456.403 695.762 457.301 C680.638 459.214 665.611 461.738 650.574 464.23 C648.151 464.631 645.727 465.031 643.304 465.43 C621.685 468.996 600.097 472.7 578.542 476.64 C562.005 479.66 545.445 482.538 528.875 485.375 C528.207 485.489 527.538 485.604 526.849 485.722 C520.729 486.77 514.608 487.817 508.486 488.863 C498.643 490.546 488.802 492.237 478.961 493.934 C421.553 503.827 421.553 503.827 396 508 C395.026 508.159 394.053 508.318 393.05 508.482 C383.233 510.078 373.402 511.544 363.551 512.911 C358.023 513.684 352.52 514.566 347.016 515.493 C324.758 519.232 302.39 522.176 280 525 C279.645 525.045 279.645 525.045 277.849 525.271 C242.527 529.713 207.021 533.643 171.48 535.782 C169.612 535.946 167.752 536.191 165.899 536.475 C155.843 537.828 145.627 538.062 135.5 538.562 C134.815 538.596 134.13 538.63 133.425 538.665 C103.119 540.146 72.812 540.308 42.475 540.311 C38.858 540.312 35.241 540.317 31.625 540.323 C3.026 540.355 -25.463 539.958 -54 538 C-55.27 537.913 -56.54 537.827 -57.849 537.737 C-65.782 537.178 -73.704 536.523 -81.625 535.812 C-82.806 535.708 -83.988 535.604 -85.205 535.496 C-111.58 533.143 -137.802 529.834 -164 526 C-164.986 525.856 -165.971 525.712 -166.987 525.563 C-203.269 520.229 -239.324 513.745 -274.895 504.777 C-279.67 503.582 -284.459 502.446 -289.25 501.312 C-290.094 501.111 -290.939 500.91 -291.809 500.702 C-295.691 499.777 -299.576 498.865 -303.469 497.98 C-311.049 496.251 -318.519 494.336 -325.958 492.073 C-330.555 490.686 -335.172 489.413 -339.816 488.195 C-341.002 487.884 -342.187 487.572 -343.408 487.251 C-345.781 486.631 -348.155 486.018 -350.531 485.411 C-351.614 485.127 -352.697 484.843 -353.812 484.551 C-354.788 484.3 -355.764 484.049 -356.77 483.79 C-359 483 -359 483 -360 481 C-358.672 478.469 -358.672 478.469 -356.75 475.5 C-356.126 474.52 -355.502 473.541 -354.859 472.531 C-353 470 -353 470 -350 468 C-347.618 467.713 -347.618 467.713 -344.801 467.656 C-343.765 467.628 -342.73 467.6 -341.663 467.571 C-340.557 467.548 -339.452 467.524 -338.312 467.5 C-329.204 467.215 -320.34 466.705 -311.323 465.339 C-308.555 464.935 -305.782 464.582 -303.008 464.227 C-243.411 456.327 -185.197 432.967 -137 397 C-136.419 396.569 -135.837 396.138 -135.238 395.693 C-119.358 383.865 -104.657 370.703 -90.625 356.75 C-90.066 356.196 -89.508 355.642 -88.932 355.071 C-43.842 309.807 -11.515 248.964 3 187 C3.173 186.29 3.347 185.58 3.525 184.849 C10.172 157.449 12.234 129.109 12.25 101 C12.251 99.933 12.251 98.867 12.252 97.768 C12.221 67.111 9.505 36.203 0.699 6.688 C0 4 0 4 0 0 Z " fill="#FEDD59" transform="translate(389,0)"/>
<path d="M0 0 C4.506 0.011 9.011 0.01 13.517 0.01 C17.922 0.01 22.328 0.016 26.733 0.023 C28.804 0.026 30.875 0.028 32.946 0.029 C47.422 0.04 61.807 0.145 76.163 2.196 C76.163 48.396 76.163 94.596 76.163 142.196 C-390.457 142.196 -857.077 142.196 -1337.837 142.196 C-1337.837 113.816 -1337.837 85.436 -1337.837 56.196 C-1326.635 59.556 -1326.635 59.556 -1322.607 61.114 C-1322.135 61.293 -1322.135 61.293 -1319.746 62.202 C-1318.724 62.592 -1317.703 62.982 -1316.65 63.383 C-1303.548 68.302 -1290.332 72.866 -1277.087 77.383 C-1276.598 77.551 -1276.598 77.551 -1274.121 78.399 C-1259.782 83.306 -1245.373 87.906 -1230.837 92.196 C-1229.956 92.456 -1229.075 92.716 -1228.167 92.984 C-1215.307 96.76 -1202.371 100.202 -1189.381 103.501 C-1186.404 104.257 -1183.428 105.02 -1180.452 105.784 C-1170.67 108.283 -1160.873 110.694 -1151.029 112.938 C-1150.159 113.136 -1149.29 113.334 -1148.394 113.539 C-1140.833 115.24 -1133.233 116.708 -1125.611 118.106 C-1122.251 118.725 -1118.903 119.386 -1115.558 120.084 C-1102.587 122.776 -1089.58 124.855 -1076.462 126.696 C-1075.4 126.846 -1074.338 126.996 -1073.244 127.151 C-1046.428 130.934 -1019.581 133.746 -992.587 135.883 C-991.828 135.944 -991.069 136.005 -990.288 136.068 C-966.967 137.92 -943.599 138.429 -920.212 138.446 C-919.588 138.446 -919.588 138.446 -916.428 138.451 C-897.073 138.452 -877.787 137.89 -858.462 136.821 C-857.315 136.757 -856.167 136.694 -854.985 136.629 C-841.316 135.86 -827.698 134.804 -814.078 133.42 C-810.895 133.101 -807.71 132.811 -804.525 132.52 C-784.548 130.641 -764.697 128.038 -744.837 125.196 C-744.274 125.115 -744.274 125.115 -741.422 124.708 C-733.881 123.619 -726.357 122.429 -718.837 121.196 C-718.056 121.068 -717.274 120.939 -716.469 120.808 C-677.659 114.436 -638.896 107.659 -600.579 98.746 C-594.247 97.275 -587.894 95.933 -581.525 94.633 C-562.921 90.815 -544.468 86.365 -526.017 81.874 C-516.383 79.541 -506.722 77.35 -497.048 75.192 C-487.552 73.07 -478.109 70.795 -468.68 68.392 C-460.231 66.256 -451.735 64.369 -443.221 62.509 C-435.209 60.749 -427.24 58.846 -419.275 56.883 C-400.225 52.219 -381.026 48.237 -361.837 44.196 C-360.124 43.834 -358.41 43.473 -356.697 43.112 C-350.189 41.739 -343.68 40.367 -337.17 39.004 C-330.37 37.58 -323.573 36.147 -316.79 34.645 C-246.32 19.067 -174.134 9.238 -102.212 3.508 C-101.874 3.481 -101.874 3.481 -100.16 3.342 C-95.711 2.987 -91.259 2.679 -86.805 2.391 C-84.651 2.249 -82.498 2.1 -80.345 1.948 C-53.56 0.069 -26.842 -0.082 0 0 Z " fill="#FFFEFE" transform="translate(1337.8372192382813,467.80438232421875)"/>
<path d="M0 0 C4.879 4.182 8.978 7.956 12.938 12.875 C13.483 13.551 14.028 14.226 14.589 14.922 C26.619 30.16 37.144 46.731 46 64 C46.371 64.713 46.743 65.426 47.125 66.161 C56.791 84.893 64.511 105.256 68.588 125.966 C69.037 128.181 69.538 130.38 70.047 132.582 C70.407 134.18 70.766 135.777 71.125 137.375 C71.284 138.057 71.443 138.739 71.607 139.442 C74.966 154.985 75.327 170.853 75.261 186.69 C75.25 189.761 75.261 192.831 75.273 195.902 C75.282 206.798 74.821 217.238 73 228 C72.854 228.978 72.708 229.957 72.558 230.965 C66.712 270.116 52.095 308.121 30 341 C34.925 343.635 40.21 344.92 45.562 346.438 C46.772 346.781 47.981 347.124 49.228 347.478 C78.243 355.649 107.496 362.839 137 369 C139.129 369.452 141.258 369.905 143.387 370.359 C148.295 371.401 153.209 372.418 158.126 373.416 C160.026 373.802 161.925 374.191 163.823 374.584 C210.95 384.295 259.036 390.492 306.938 394.75 C308.057 394.851 309.176 394.952 310.329 395.056 C348.283 398.444 386.107 399.375 424.198 399.317 C427.858 399.312 431.518 399.311 435.178 399.31 C464.724 399.294 494.236 399.063 523.75 397.625 C525.054 397.562 526.359 397.499 527.702 397.434 C540.445 396.794 553.119 395.896 565.796 394.46 C570.943 393.881 576.101 393.5 581.266 393.114 C622.663 389.981 664.009 385.005 705.081 378.998 C710.35 378.23 715.623 377.503 720.902 376.809 C721.601 376.717 722.299 376.625 723.018 376.53 C726.199 376.114 729.38 375.701 732.561 375.292 C738.631 374.499 744.646 373.568 750.663 372.438 C753.31 371.942 755.962 371.519 758.625 371.125 C779.544 367.966 800.411 364.465 821.279 360.985 C823.474 360.619 825.669 360.253 827.865 359.887 C844.917 357.045 861.964 354.182 878.981 351.133 C889.588 349.235 900.21 347.432 910.835 345.638 C926.995 342.909 943.133 340.093 959.25 337.125 C1054.737 319.569 1054.737 319.569 1099.96 314.052 C1105.925 313.313 1111.838 312.377 1117.764 311.371 C1140.125 307.589 1162.632 304.95 1185.14 302.208 C1191.734 301.404 1198.326 300.584 1204.914 299.734 C1219.075 297.911 1233.211 296.342 1247.444 295.209 C1251.424 294.884 1255.4 294.507 1259.375 294.125 C1260.205 294.047 1261.036 293.969 1261.891 293.888 C1267.029 293.399 1272.163 292.88 1277.295 292.335 C1322.805 287.515 1368.25 285.657 1414 285 C1414 299.85 1414 314.7 1414 330 C1410.502 329.839 1407.004 329.678 1403.399 329.513 C1391.466 328.999 1379.552 328.822 1367.609 328.797 C1365.543 328.79 1363.477 328.783 1361.412 328.775 C1354.858 328.756 1348.304 328.751 1341.75 328.75 C1340.631 328.75 1339.513 328.749 1338.36 328.749 C1304.81 328.748 1271.437 328.964 1238 332 C1237.417 332.052 1237.417 332.052 1234.466 332.316 C1189.876 336.314 1145.52 341.514 1101.322 348.628 C1099.061 348.99 1096.799 349.349 1094.537 349.706 C1059.882 355.188 1025.462 361.974 991.223 369.624 C983.127 371.427 975.011 373.136 966.898 374.861 C942.057 380.147 917.251 385.579 892.639 391.854 C885.373 393.694 878.073 395.34 870.75 396.938 C861.437 398.971 852.178 401.16 842.938 403.5 C823.578 408.397 804.115 412.783 784.601 417.015 C776.586 418.754 768.591 420.547 760.625 422.5 C748.135 425.548 735.522 428.036 722.923 430.585 C718.792 431.424 714.665 432.279 710.541 433.152 C696.45 436.13 682.326 438.877 668.162 441.485 C664.672 442.128 661.182 442.777 657.693 443.426 C645.465 445.691 633.231 447.838 620.935 449.705 C618.207 450.121 615.483 450.557 612.758 450.992 C585.217 455.332 557.617 459.104 529.849 461.641 C527.017 461.905 524.188 462.181 521.358 462.469 C464.223 468.213 406.28 469.065 349 465 C348.126 464.939 347.253 464.878 346.353 464.816 C300.472 461.598 252.925 457.328 208.231 446.015 C204.656 445.134 201.066 444.402 197.45 443.71 C185.721 441.465 174.136 438.712 162.545 435.846 C159.372 435.062 156.198 434.285 153.023 433.51 C112.746 423.629 73.15 410.956 34.062 397.125 C32.918 396.722 31.774 396.319 30.596 395.903 C20.271 392.206 10.203 388.081 0 384 C0 257.28 0 130.56 0 0 Z " fill="#FF45B6" transform="translate(0,140)"/>
<path d="M0 0 C0.949 0.727 1.898 1.454 2.875 2.203 C36.816 29.009 58.237 69.096 63.572 111.85 C64.344 118.739 64.395 125.638 64.375 132.562 C64.374 133.302 64.373 134.041 64.372 134.802 C64.195 180.404 44.038 220.881 12.199 252.809 C-3.57 267.853 -22.796 279.031 -43 287 C-43.897 287.367 -44.794 287.735 -45.719 288.113 C-51.147 290.231 -56.657 291.761 -62.312 293.125 C-62.963 293.284 -63.614 293.442 -64.284 293.606 C-76.56 296.433 -88.758 297.377 -101.312 297.312 C-102.037 297.311 -102.761 297.31 -103.507 297.308 C-114.307 297.268 -124.486 296.64 -135 294 C-136.333 293.704 -137.666 293.411 -139 293.121 C-160.015 288.397 -179.355 279.266 -197 267 C-198.033 266.287 -199.065 265.574 -200.129 264.84 C-234.661 239.643 -257.035 201.678 -265 160 C-265.228 158.846 -265.456 157.693 -265.691 156.504 C-272.607 114.671 -261.544 71.461 -237.785 36.766 C-235.598 33.775 -233.335 30.877 -231 28 C-230.549 27.442 -230.098 26.884 -229.633 26.31 C-206.648 -1.915 -176.018 -20.462 -141 -30 C-140.238 -30.213 -139.475 -30.426 -138.689 -30.646 C-91.549 -43.272 -37.89 -29.578 0 0 Z " fill="#FAC04D" transform="translate(642,208)"/>
<path d="M0 0 C5.592 4.377 9.613 9.442 14 15 C14.786 15.971 15.573 16.941 16.383 17.941 C33.197 39.108 45.832 63.049 56 88 C56.272 88.665 56.544 89.329 56.824 90.014 C61.356 101.299 64.109 113.213 67 125 C67.311 126.259 67.621 127.519 67.941 128.816 C72.178 147.249 73.552 165.698 73.438 184.562 C73.435 185.603 73.433 186.644 73.43 187.716 C73.369 204.811 72.223 221.184 69 238 C68.742 239.54 68.485 241.08 68.23 242.621 C64.358 264.123 55.72 286.51 46 306 C45.805 306.393 45.805 306.393 44.817 308.383 C31.105 335.748 31.105 335.748 26.225 337.716 C23.343 338.084 21.384 337.466 18.613 336.602 C17.593 336.287 16.573 335.973 15.521 335.648 C14.463 335.311 13.404 334.973 12.312 334.625 C11.242 334.295 10.171 333.965 9.068 333.625 C1.157 331.157 1.157 331.157 0 330 C-0.097 328.243 -0.124 326.483 -0.123 324.723 C-0.125 323.572 -0.127 322.42 -0.129 321.234 C-0.126 319.953 -0.123 318.672 -0.12 317.352 C-0.121 315.99 -0.122 314.628 -0.123 313.266 C-0.125 309.505 -0.121 305.745 -0.116 301.985 C-0.112 297.936 -0.113 293.888 -0.114 289.839 C-0.114 282.82 -0.111 275.8 -0.106 268.78 C-0.098 258.63 -0.095 248.48 -0.094 238.33 C-0.092 221.865 -0.085 205.399 -0.075 188.933 C-0.066 172.934 -0.059 156.935 -0.055 140.936 C-0.055 139.951 -0.054 138.965 -0.054 137.95 C-0.053 133.007 -0.052 128.063 -0.05 123.12 C-0.04 82.08 -0.022 41.04 0 0 Z " fill="#FABF4D" transform="translate(0,143)"/>
<path d="M0 0 C0.99 0 1.98 0 3 0 C3.115 0.626 3.23 1.253 3.348 1.898 C13.202 54.972 32.975 103.774 67 146 C67.417 146.522 67.835 147.043 68.265 147.581 C74.886 155.786 82.135 163.335 89.562 170.812 C89.994 171.248 89.994 171.248 92.175 173.453 C98.14 179.389 104.396 184.789 111 190 C111.635 190.504 112.27 191.008 112.925 191.528 C116.577 194.403 120.286 197.205 124 200 C124.773 200.583 125.547 201.165 126.344 201.766 C175.725 237.585 232.31 251.811 292 257 C292 257.66 292 258.32 292 259 C279.653 259.122 267.693 259.124 255.562 256.527 C252.904 255.98 250.244 255.546 247.562 255.125 C192.708 245.948 138.133 221.428 97.715 182.602 C95.486 180.466 93.226 178.434 90.875 176.438 C81.994 168.716 74.314 160.198 67 151 C66.295 150.162 65.59 149.324 64.863 148.461 C54.786 136.484 45.874 123.52 38 110 C37.616 109.345 37.233 108.69 36.837 108.015 C26.986 91.091 19.159 73.578 13 55 C12.694 54.108 12.389 53.216 12.074 52.297 C9.104 43.584 6.578 34.764 4.438 25.812 C4.221 24.91 4.005 24.007 3.782 23.077 C2.001 15.426 0.804 7.814 0 0 Z " fill="#FE4FAC" transform="translate(1122,0)"/>
<path d="M0 0 C4.843 3.921 9.031 8.022 12.938 12.875 C13.483 13.551 14.028 14.226 14.589 14.922 C26.619 30.16 37.144 46.731 46 64 C46.371 64.713 46.743 65.426 47.125 66.161 C56.791 84.893 64.511 105.256 68.588 125.966 C69.037 128.181 69.538 130.38 70.047 132.582 C70.407 134.18 70.766 135.777 71.125 137.375 C71.284 138.057 71.443 138.739 71.607 139.442 C74.966 154.985 75.327 170.853 75.261 186.69 C75.25 189.761 75.261 192.831 75.273 195.902 C75.282 206.798 74.821 217.238 73 228 C72.854 228.978 72.708 229.957 72.558 230.965 C67.155 267.152 54.413 309.969 31 339 C30.34 339 29.68 339 29 339 C30.337 335.222 32.142 331.983 34.223 328.586 C45.369 310.38 53.179 291.179 60 271 C60.267 270.228 60.534 269.456 60.809 268.66 C69.689 242.884 72.607 215.444 72.438 188.312 C72.434 187.271 72.431 186.229 72.428 185.155 C72.357 168.483 71.499 152.354 68 136 C67.78 134.966 67.561 133.933 67.334 132.868 C57.703 88.963 38.328 47.227 8.711 13.195 C8.157 12.558 7.602 11.921 7.031 11.265 C5.948 10.029 4.857 8.8 3.758 7.579 C0 3.324 0 3.324 0 0 Z " fill="#FE53A9" transform="translate(0,140)"/>
<path d="M0 0 C11.55 0.33 23.1 0.66 35 1 C29 12 29 12 27 14 C20.542 13.764 4.704 10.704 0 6 C0 4.02 0 2.04 0 0 Z " fill="#FED95A" transform="translate(0,467)"/>
<path d="M0 0 C7.176 10.764 9.382 26.696 12 39.188 C12.22 40.189 12.439 41.19 12.665 42.221 C14.082 49.361 13.943 55.795 13 63 C12.67 63 12.34 63 12 63 C11.97 62.714 11.97 62.714 11.82 61.27 C9.856 43.068 6.108 25.599 0.569 8.148 C-0.162 5.389 -0.224 2.836 0 0 Z " fill="#FE54A8" transform="translate(59,236)"/>
<path d="M0 0 C1 3 1 3 -0.336 6.23 C-1.004 7.555 -1.685 8.874 -2.375 10.188 C-2.555 10.537 -2.555 10.537 -3.464 12.308 C-14.862 34.305 -14.862 34.305 -19 39 C-19.66 39 -20.32 39 -21 39 C-19.364 34.388 -16.957 30.415 -14.438 26.25 C-9.305 17.662 -4.602 8.881 0 0 Z " fill="#FE4EAE" transform="translate(50,440)"/>
<path d="M0 0 C0.782 0.053 1.564 0.106 2.369 0.16 C7.012 0.494 11.588 1.038 16.188 1.75 C16.188 2.41 16.188 3.07 16.188 3.75 C-3.153 3.941 -3.153 3.941 -12.812 2.75 C-8.986 -1.252 -5.098 -0.439 0 0 Z " fill="#FD5DA1" transform="translate(1397.8125,255.25)"/>
<path d="M0 0 C0.99 0 1.98 0 3 0 C2.02 3.672 1.016 7.338 0 11 C-0.33 12.196 -0.66 13.392 -1 14.625 C-1.165 15.017 -1.165 15.017 -2 17 C-2.99 17.33 -3.98 17.66 -5 18 C-3.37 11.989 -1.729 5.983 0 0 Z " fill="#FE5CA2" transform="translate(63,401)"/>
<path d="M0 0 C3.776 6.58 3.451 14.747 2 22 C1.67 22 1.34 22 1 22 C0.636 18.709 0.286 15.417 -0.062 12.125 C-0.166 11.188 -0.27 10.251 -0.377 9.285 C-0.47 8.389 -0.564 7.493 -0.66 6.57 C-0.749 5.743 -0.838 4.915 -0.93 4.063 C-1 2 -1 2 0 0 Z " fill="#FD649A" transform="translate(70,277)"/>
<path d="M0 0 C4.234 1.311 8.074 2.944 12 5 C11.67 5.495 11.67 5.495 10 8 C6.7 6.35 3.4 4.7 0 3 C0 2.01 0 1.02 0 0 Z " fill="#FE56A7" transform="translate(1278,221)"/>
<path d="M0 0 C2.016 3.025 3.032 5.631 4.188 9.062 C4.552 10.126 4.917 11.189 5.293 12.285 C6 15 6 15 5 17 C1.294 14.305 0.702 10.283 0 6 C-0.125 2.5 -0.125 2.5 0 0 Z " fill="#FE5BA3" transform="translate(59,236)"/>
<path d="M0 0 C2.059 0.207 2.059 0.207 4.438 0.812 C4.829 0.909 4.829 0.909 6.809 1.395 C8.555 1.877 10.282 2.427 12 3 C11.67 3.99 11.34 4.98 11 6 C6.71 4.68 2.42 3.36 -2 2 C-1.34 1.34 -0.68 0.68 0 0 Z " fill="#FE57A6" transform="translate(1323,241)"/>
<path d="M0 0 C2.073 3.11 2.274 3.891 2.25 7.438 C2.255 8.199 2.26 8.961 2.266 9.746 C1.975 12.214 1.23 13.858 0 16 C-1.526 12.947 -0.838 10.242 -0.562 6.875 C-0.461 5.594 -0.359 4.312 -0.254 2.992 C-0.212 2.498 -0.212 2.498 0 0 Z " fill="#FD5EA0" transform="translate(72,352)"/>
<path d="M0 0 C0.99 0.33 1.98 0.66 3 1 C3.73 2.848 3.73 2.848 4.188 5.062 C4.346 5.796 4.505 6.529 4.668 7.285 C4.723 7.568 4.723 7.568 5 9 C3.68 8.67 2.36 8.34 1 8 C0.67 5.36 0.34 2.72 0 0 Z " fill="#FE56A6" transform="translate(1133,46)"/>
<path d="M0 0 C0.99 0.33 1.98 0.66 3 1 C2.05 2.505 1.09 4.004 0.125 5.5 C-0.409 6.335 -0.942 7.171 -1.492 8.031 C-1.99 8.681 -2.487 9.331 -3 10 C-3.66 10 -4.32 10 -5 10 C-3.665 6.406 -2.04 3.245 0 0 Z " fill="#FF56AB" transform="translate(34,469)"/>
<path d="M0 0 C1.236 3.708 0.568 4.675 -0.938 8.188 C-1.318 9.089 -1.698 9.99 -2.09 10.918 C-2.24 11.262 -2.24 11.262 -3 13 C-3.33 13 -3.66 13 -4 13 C-3.56 7.804 -3.117 4.337 0 0 Z " fill="#FE52AA" transform="translate(59,418)"/>
<path d="M0 0 C3.094 3.094 3.937 6.552 4.125 10.875 C4.084 11.576 4.043 12.278 4 13 C1.651 10.651 1.269 9.043 0.375 5.875 C0.115 4.965 -0.146 4.055 -0.414 3.117 C-0.607 2.419 -0.801 1.72 -1 1 C-0.67 0.67 -0.34 0.34 0 0 Z " fill="#FE55A8" transform="translate(55,226)"/>
<path d="M0 0 C0.99 0 1.98 0 3 0 C3.33 2.64 3.66 5.28 4 8 C3.34 8 2.68 8 2 8 C1.67 8.66 1.34 9.32 1 10 C0.67 6.7 0.34 3.4 0 0 Z " fill="#FE53AA" transform="translate(1122,0)"/>
</svg>
