<?xml version="1.0" standalone="no"?>
<!DOCTYPE svg PUBLIC "-//W3C//DTD SVG 20010904//EN"
 "http://www.w3.org/TR/2001/REC-SVG-20010904/DTD/svg10.dtd">
<svg version="1.0" xmlns="http://www.w3.org/2000/svg"
 width="529.000000pt" height="471.000000pt" viewBox="0 0 529.000000 471.000000"
 preserveAspectRatio="xMidYMid meet">

<g transform="translate(0.000000,471.000000) scale(0.100000,-0.100000)"
fill="#000000" stroke="none">
<path d="M3167 4625 c-221 -61 -380 -262 -438 -554 -16 -82 -6 -383 16 -481
24 -110 61 -213 113 -320 79 -162 203 -263 359 -292 124 -23 267 34 383 152
165 169 283 524 284 855 1 253 -47 397 -175 523 -50 49 -159 105 -237 121 -71
15 -245 12 -305 -4z"/>
<path d="M1600 4554 c-199 -52 -327 -196 -375 -419 -23 -106 -23 -317 -1 -445
33 -181 69 -295 137 -435 74 -152 171 -254 296 -313 52 -24 69 -27 168 -27
104 0 113 2 170 31 162 85 265 241 336 509 54 204 62 460 21 605 -80 277 -223
441 -428 494 -77 20 -249 20 -324 0z"/>
<path d="M4610 3095 c-166 -37 -387 -137 -520 -236 -198 -147 -301 -319 -301
-504 0 -104 13 -159 64 -265 69 -147 210 -265 362 -305 77 -20 230 -19 308 1
363 94 715 626 658 995 -23 143 -86 235 -199 291 -63 31 -73 33 -187 35 -76 2
-144 -3 -185 -12z"/>
<path d="M430 2921 c-169 -56 -279 -184 -325 -378 -24 -99 -17 -343 13 -455
67 -248 185 -401 362 -465 65 -24 88 -27 195 -27 139 0 234 22 350 82 87 45
189 145 233 229 100 190 93 396 -21 603 -68 125 -213 273 -331 339 -154 87
-343 116 -476 72z"/>
<path d="M2420 2506 c-296 -70 -605 -360 -835 -779 -53 -97 -165 -242 -300
-387 -128 -137 -227 -260 -268 -331 -69 -120 -99 -287 -77 -420 18 -106 53
-173 130 -249 94 -94 208 -145 391 -175 249 -40 437 -1 791 164 49 22 127 55
175 72 80 29 99 32 208 33 163 1 188 -9 421 -165 107 -72 223 -125 349 -160
107 -30 319 -32 410 -5 96 30 168 71 228 131 133 134 247 474 218 652 -22 139
-78 208 -395 493 -158 141 -252 243 -518 556 -314 371 -457 493 -653 559 -67
22 -206 28 -275 11z"/>
</g>
</svg>
